<svg height="300" viewBox="0 -48 512 512" width="300" xmlns="http://www.w3.org/2000/svg" version="1.1" xmlns:xlink="http://www.w3.org/1999/xlink" xmlns:svgjs="http://svgjs.dev/svgjs"><g width="100%" height="100%" transform="matrix(1,0,0,1,0,0)"><path d="m472 54.039062h-139.570312l-8.421876-40.3125c-1.664062-7.953124-8.765624-13.726562-16.890624-13.726562h-102.234376c-8.125 0-15.226562 5.773438-16.890624 13.726562l-8.421876 40.3125h-139.570312c-22.054688 0-40 17.945313-40 40v282c0 22.058594 17.945312 40 40 40h432c22.054688 0 40-17.941406 40-40v-282c0-22.054687-17.945312-40-40-40zm-18 67.757813c0 3.949219-1.601562 7.808594-4.390625 10.609375-2.800781 2.789062-6.660156 4.390625-10.609375 4.390625s-7.8125-1.601563-10.609375-4.390625c-2.789063-2.800781-4.390625-6.660156-4.390625-10.609375 0-3.953125 1.601562-7.8125 4.390625-10.613281 2.789063-2.789063 6.660156-4.386719 10.609375-4.386719s7.808594 1.597656 10.609375 4.386719c2.789063 2.800781 4.390625 6.660156 4.390625 10.613281zm-198-20.820313c73.921875 0 134.0625 60.140626 134.0625 134.0625 0 73.921876-60.140625 134.066407-134.0625 134.066407s-134.0625-60.140625-134.0625-134.066407c0-73.921874 60.140625-134.0625 134.0625-134.0625zm-145 22.113282c0 8.285156-6.714844 15-15 15h-27c-8.285156 0-15-6.714844-15-15s6.714844-15 15-15h27c8.285156 0 15 6.714844 15 15zm0 0" fill="#ff4a57" fill-opacity="1" data-original-color="#000000ff" stroke="none" stroke-opacity="1"/><path d="m256 339.105469c57.382812 0 104.0625-46.683594 104.0625-104.066407 0-57.378906-46.679688-104.0625-104.0625-104.0625s-104.0625 46.683594-104.0625 104.0625c0 57.382813 46.679688 104.066407 104.0625 104.066407zm0-147.332031c23.859375 0 43.269531 19.410156 43.269531 43.265624 0 23.859376-19.410156 43.269532-43.269531 43.269532s-43.269531-19.410156-43.269531-43.269532c0-23.855468 19.410156-43.265624 43.269531-43.265624zm0 0" fill="#ff4a57" fill-opacity="1" data-original-color="#000000ff" stroke="none" stroke-opacity="1"/><path d="m256 248.308594c7.316406 0 13.269531-5.953125 13.269531-13.269532 0-7.316406-5.953125-13.269531-13.269531-13.269531s-13.269531 5.953125-13.269531 13.269531c0 7.316407 5.953125 13.269532 13.269531 13.269532zm0 0" fill="#ff4a57" fill-opacity="1" data-original-color="#000000ff" stroke="none" stroke-opacity="1"/></g></svg>