<svg id="Layer_1" viewBox="0 0 512 512" xmlns="http://www.w3.org/2000/svg" data-name="Layer 1" width="300" height="300" version="1.1" xmlns:xlink="http://www.w3.org/1999/xlink" xmlns:svgjs="http://svgjs.dev/svgjs"><g width="100%" height="100%" transform="matrix(1,0,0,1,0,0)"><path d="m178.613 192.619a26.456 26.456 0 0 0 7.88 2.984c.347.087.695.145 1.042.2a63.491 63.491 0 0 0 18.047 36.238 64.191 64.191 0 0 0 13.7 10.428v12.137c-12.282 7.994-23.549 13.908-33.63 19.238-37.744 19.9-60.223 31.748-69.058 105.528-1.275 10.6-2.057 17.96-2.607 25.579-.348 4.721-.608 9.675-.84 15.729h35.978a25.973 25.973 0 0 1 -2.9-11.964v-26.273h11.995l-5.909-68.243a23.289 23.289 0 0 1 23.174-25.4h149.936a23.289 23.289 0 0 1 23.2 25.4l-5.909 68.248h11.993v26.273a25.973 25.973 0 0 1 -2.9 11.964h35.977c-.231-6.054-.492-11.008-.84-15.729-.55-7.619-1.332-14.977-2.607-25.579-8.835-73.78-31.313-85.627-69.058-105.528-10.11-5.33-21.407-11.269-33.718-19.292v-12.027a64.08 64.08 0 0 0 31.841-46.724 28.282 28.282 0 0 0 7.908-2.636h.029a27.14 27.14 0 0 0 13.731-31.343 27.644 27.644 0 0 0 -3.563-7.822v-40.641a57.1 57.1 0 0 0 -1.505-13.035 51.7 51.7 0 0 0 -16.25-27.345 44.766 44.766 0 0 0 -29.55-11.124 46.914 46.914 0 0 0 -10.979 1.3 16.994 16.994 0 0 1 -8.342-.463 49.3 49.3 0 0 1 -8.864-3.708 61.406 61.406 0 0 0 -27.635-6.836 56.293 56.293 0 0 0 -31.2 9.5 62.79 62.79 0 0 0 -27.751 51.707v40.67c-.348.522-.7 1.043-1.014 1.623a27.13 27.13 0 0 0 10.2 36.962zm135.365-35.4a10.454 10.454 0 0 1 1.275.637 12.868 12.868 0 0 1 -.464 22.624h.029c-.289.145-.55.26-.84.376zm-46.724 107.819a16.83 16.83 0 0 1 -33.66 0v-16.628a62.305 62.305 0 0 0 16.859 2.289 63.03 63.03 0 0 0 16.8-2.26zm-66.017-125.314a115.557 115.557 0 0 0 20.219-7.386 141.038 141.038 0 0 0 15.556-8.633c10.66 20.857 41.047 19.119 62.628 17.9h.057v45.566a49.57 49.57 0 0 1 -28.185 44.465l-.348.174a49.126 49.126 0 0 1 -20.711 4.577 48.471 48.471 0 0 1 -20.77-4.635 1.774 1.774 0 0 0 -.348-.145 50.356 50.356 0 0 1 -13.614-9.675 49.1 49.1 0 0 1 -14.484-34.761zm-20.393 22.976a12.663 12.663 0 0 1 5.272-5.07c.261-.144.55-.289.811-.405v23.637c-.405-.173-.84-.405-1.275-.637a12.824 12.824 0 0 1 -6.025-7.763 12.628 12.628 0 0 1 1.217-9.762zm89.278 10.225v-7.763a7.155 7.155 0 0 1 14.31 0v7.763a7.155 7.155 0 0 1 -14.31 0zm-53.619 0v-7.763a7.155 7.155 0 0 1 14.31 0v7.763a7.155 7.155 0 0 1 -14.31 0zm16.309 31.314a7.107 7.107 0 0 1 9.848 2.028 6.313 6.313 0 0 0 1.883 1.825 11.811 11.811 0 0 0 11.848 0 6.66 6.66 0 0 0 1.883-1.825 7.123 7.123 0 0 1 11.906 7.821 20 20 0 0 1 -5.968 5.909 25.626 25.626 0 0 1 -27.49 0 20 20 0 0 1 -5.967-5.909 7.115 7.115 0 0 1 2.057-9.853zm-98.171 80.529h-117.405c-5.765 0-10.487-4.982-10.487-11.065v-44.03a160.012 160.012 0 0 0 43.915 15.265v16.251h50.548v-16.28a160.966 160.966 0 0 0 43.915-15.265v44.056c0 6.082-4.693 11.064-10.486 11.064zm-83.977-54.4v-25.64h50.548v25.607a152.062 152.062 0 0 0 42.959-16.367 14.622 14.622 0 0 0 7.705-13.093v-19.032c0-7.7-4.924-10.254-11.3-10.254h-17.5v-11.442a16.375 16.375 0 0 0 -4.432-11.211 15.253 15.253 0 0 0 -11.144-4.866h-63.122a15.347 15.347 0 0 0 -11.152 4.866 16.351 16.351 0 0 0 -4.4 11.211v11.442h-17.5c-6.373 0-11.326 2.549-11.326 10.254v19.032a14.624 14.624 0 0 0 7.705 13.093 150.429 150.429 0 0 0 42.959 16.396zm-7.531-70.217a2.06 2.06 0 0 1 .492-1.42 1.019 1.019 0 0 1 .753-.348h63.122a.973.973 0 0 1 .753.348 2.076 2.076 0 0 1 .522 1.42v11.442h-65.642zm21.841 86.728v-27.841h21.926v27.837zm180.326 101.064a7.309 7.309 0 1 1 5.156 2.143 7.221 7.221 0 0 1 -5.156-2.143zm83.078 34.5 6-69.493a8.846 8.846 0 0 0 -2.288-6.894 8.724 8.724 0 0 0 -6.662-2.955h-149.943a8.709 8.709 0 0 0 -6.634 2.955 8.846 8.846 0 0 0 -2.288 6.894l6 69.493zm-93.188-54.951a21.608 21.608 0 1 1 -6.344 15.294 21.517 21.517 0 0 1 6.341-15.294zm-74.649 69.261h179.859v11.963a12 12 0 0 1 -11.964 11.964h-155.936a12 12 0 0 1 -11.963-11.964zm265.02-264.531a86.439 86.439 0 1 0 86.439 86.439 86.44 86.44 0 0 0 -86.439-86.439zm49.824 136.292a70.493 70.493 0 1 1 20.654-49.853 70.227 70.227 0 0 1 -20.654 49.853zm-10.11-89.6a56.191 56.191 0 1 0 16.454 39.744 56 56 0 0 0 -16.454-39.741zm-3.675 10.721a7.118 7.118 0 1 1 7.1 12.34l-4.461 2.579a7.118 7.118 0 1 1 -7.1-12.341zm-21.929-9.675 2.578-4.461a7.132 7.132 0 1 1 12.34 7.155l-2.578 4.461a7.132 7.132 0 0 1 -12.34-7.155zm-21.262-7.01a7.155 7.155 0 0 1 14.31 0v5.156a7.155 7.155 0 0 1 -14.31 0zm0 23.956a7.155 7.155 0 0 1 14.31 0v16.6l13.731 8.111a7.142 7.142 0 0 1 -7.242 12.311l-16.888-9.965a7.161 7.161 0 0 1 -3.911-6.373zm-38.614-4.664a7.105 7.105 0 0 1 9.705-2.607l4.461 2.578a7.118 7.118 0 1 1 -7.1 12.341l-4.461-2.579a7.137 7.137 0 0 1 -2.608-9.733zm-7.1 26.419a7.121 7.121 0 0 1 7.126-7.126h5.157a7.126 7.126 0 0 1 0 14.252h-5.157a7.121 7.121 0 0 1 -7.121-7.126zm16.8 29.025a7.118 7.118 0 0 1 -7.1-12.34l4.461-2.578a7.125 7.125 0 0 1 7.126 12.34zm21.957 9.675-2.578 4.461a7.145 7.145 0 1 1 -12.369-7.155l2.578-4.461a7.145 7.145 0 0 1 12.369 7.155zm-2.607-67.668a7.144 7.144 0 0 1 -9.762-2.578l-2.578-4.461a7.145 7.145 0 0 1 12.369-7.155l2.578 4.461a7.112 7.112 0 0 1 -2.605 9.733zm23.869 74.678a7.155 7.155 0 1 1 -14.31 0v-5.156a7.155 7.155 0 0 1 14.31 0zm19.263.058a7.119 7.119 0 0 1 -9.733-2.607l-2.578-4.461a7.132 7.132 0 1 1 12.34-7.155l2.578 4.461a7.144 7.144 0 0 1 -2.605 9.762zm19.351-19.321a7.162 7.162 0 0 1 -9.762 2.578l-4.461-2.578a7.132 7.132 0 1 1 7.155-12.34l4.461 2.578a7.147 7.147 0 0 1 2.609 9.762zm-.058-19.292h-5.156a7.155 7.155 0 1 1 0-14.31h5.156a7.155 7.155 0 1 1 0 14.31zm-384.918 209.174h328.2v24.854h-328.2z" fill-rule="evenodd" fill="#ff4a57" fill-opacity="1" data-original-color="#000000ff" stroke="none" stroke-opacity="1"/></g></svg>